<svg width="215" height="129" viewBox="0 0 215 129" fill="none" xmlns="http://www.w3.org/2000/svg">
<circle opacity="0.5" cx="107.5" cy="60.2" r="59.2" stroke="#4263EB" stroke-width="2"/>
<ellipse cx="107.5" cy="60.2006" rx="42.5805" ry="42.5805" fill="#F5F7FE"/>
<path d="M93.7959 60.2007L103.585 69.9893L123.162 50.4121" stroke="#4263EB" stroke-width="8" stroke-linecap="round" stroke-linejoin="round"/>
<path d="M202.84 87.353C203.058 86.2867 204.582 86.2867 204.8 87.353L205.439 90.481C205.519 90.8735 205.826 91.1803 206.219 91.2605L209.347 91.8998C210.413 92.1178 210.413 93.6414 209.347 93.8593L206.219 94.4986C205.826 94.5789 205.519 94.8856 205.439 95.2781L204.8 98.4061C204.582 99.4724 203.058 99.4724 202.84 98.4061L202.201 95.2781C202.121 94.8856 201.814 94.5789 201.421 94.4986L198.293 93.8593C197.227 93.6414 197.227 92.1178 198.293 91.8998L201.421 91.2605C201.814 91.1803 202.121 90.8735 202.201 90.481L202.84 87.353Z" fill="#4263EB"/>
<path opacity="0.2" d="M28.2601 116.593C28.4781 115.527 30.0017 115.527 30.2196 116.593L30.5671 118.293C30.6473 118.686 30.9541 118.992 31.3466 119.073L33.0464 119.42C34.1128 119.638 34.1128 121.162 33.0464 121.38L31.3466 121.727C30.9541 121.807 30.6473 122.114 30.5671 122.506L30.2196 124.206C30.0017 125.273 28.4781 125.273 28.2601 124.206L27.9127 122.506C27.8325 122.114 27.5257 121.807 27.1332 121.727L25.4333 121.38C24.367 121.162 24.367 119.638 25.4333 119.42L27.1332 119.073C27.5257 118.992 27.8325 118.686 27.9127 118.293L28.2601 116.593Z" fill="#4263EB"/>
<path opacity="0.2" d="M184.78 15.1138C184.998 14.0474 186.522 14.0474 186.74 15.1138L187.087 16.8136C187.167 17.2062 187.474 17.5129 187.867 17.5931L189.566 17.9406C190.633 18.1585 190.633 19.6821 189.566 19.9001L187.867 20.2475C187.474 20.3277 187.167 20.6345 187.087 21.027L186.74 22.7269C186.522 23.7932 184.998 23.7932 184.78 22.7269L184.433 21.027C184.353 20.6345 184.046 20.3277 183.653 20.2475L181.953 19.9001C180.887 19.6821 180.887 18.1585 181.953 17.9406L183.653 17.5931C184.046 17.5129 184.353 17.2062 184.433 16.8136L184.78 15.1138Z" fill="#4263EB"/>
<path d="M12.7803 16.8335C12.9982 15.7672 14.5218 15.7672 14.7397 16.8335L15.9629 22.8177C16.0431 23.2102 16.3498 23.5169 16.7424 23.5972L22.7265 24.8203C23.7929 25.0382 23.7929 26.5618 22.7265 26.7798L16.7424 28.0029C16.3498 28.0831 16.0431 28.3899 15.9629 28.7824L14.7397 34.7666C14.5218 35.8329 12.9982 35.8329 12.7803 34.7666L11.5571 28.7824C11.4769 28.3899 11.1702 28.0831 10.7776 28.0029L4.79346 26.7798C3.72713 26.5618 3.72712 25.0382 4.79345 24.8203L10.7776 23.5972C11.1702 23.5169 11.4769 23.2102 11.5571 22.8177L12.7803 16.8335Z" fill="#4263EB"/>
</svg>
