<svg width="14" height="14" viewBox="0 0 14 14" fill="none" xmlns="http://www.w3.org/2000/svg">
<g clip-path="url(#clip0_710_1365)">
<path d="M8.182 1.28682C6.58661 1.70277 5.40906 3.15342 5.40906 4.87912C5.40906 6.92928 7.07101 8.59122 9.12116 8.59122C10.8469 8.59122 12.2975 7.41368 12.7134 5.81829C12.792 6.19999 12.8333 6.59535 12.8333 7.00033C12.8333 10.222 10.2216 12.8337 6.99996 12.8337C3.7783 12.8337 1.16663 10.222 1.16663 7.00033C1.16663 3.77866 3.7783 1.16699 6.99996 1.16699C7.40494 1.16699 7.80029 1.20826 8.182 1.28682Z" fill="#868E96"/>
<path fill-rule="evenodd" clip-rule="evenodd" d="M6.54855 1.62311C3.77973 1.85244 1.60413 4.17231 1.60413 7.00033C1.60413 9.98036 4.01992 12.3962 6.99996 12.3962C9.82797 12.3962 12.1478 10.2206 12.3772 7.45174C11.6173 8.41229 10.4415 9.02872 9.12116 9.02872C6.82938 9.02872 4.97156 7.1709 4.97156 4.87912C4.97156 3.5588 5.588 2.38298 6.54855 1.62311ZM0.729126 7.00033C0.729126 3.53704 3.53667 0.729492 6.99996 0.729492C7.43473 0.729492 7.85963 0.773803 8.2702 0.858306C8.46938 0.899303 8.61406 1.07215 8.61935 1.27544C8.62464 1.47873 8.48915 1.65887 8.29237 1.71017C6.8849 2.07712 5.84656 3.3574 5.84656 4.87912C5.84656 6.68765 7.31263 8.15372 9.12116 8.15372C10.6429 8.15372 11.9232 7.11538 12.2901 5.70792C12.3414 5.51114 12.5215 5.37565 12.7248 5.38094C12.9281 5.38622 13.101 5.53089 13.142 5.73008C13.2265 6.14064 13.2708 6.56555 13.2708 7.00033C13.2708 10.4636 10.4632 13.2712 6.99996 13.2712C3.53667 13.2712 0.729126 10.4636 0.729126 7.00033Z" fill="#868E96"/>
</g>
<defs>
<clipPath id="clip0_710_1365">
<rect width="14" height="14" fill="white"/>
</clipPath>
</defs>
</svg>
