<svg width="15" height="15" viewBox="0 0 15 15" fill="none" xmlns="http://www.w3.org/2000/svg">
<path d="M5.66667 3.54167H7.08333V7.08333H10.625V8.5H5.66667V3.54167Z" fill="#868E96"/>
<path fill-rule="evenodd" clip-rule="evenodd" d="M14.1667 7.08333C14.1667 10.9954 10.9954 14.1667 7.08333 14.1667C3.17132 14.1667 0 10.9954 0 7.08333C0 3.17132 3.17132 0 7.08333 0C10.9954 0 14.1667 3.17132 14.1667 7.08333ZM12.75 7.08333C12.75 10.2129 10.2129 12.75 7.08333 12.75C3.95372 12.75 1.41667 10.2129 1.41667 7.08333C1.41667 3.95372 3.95372 1.41667 7.08333 1.41667C10.2129 1.41667 12.75 3.95372 12.75 7.08333Z" fill="#868E96"/>
</svg>
