<svg width="19" height="18" viewBox="0 0 19 18" fill="none" xmlns="http://www.w3.org/2000/svg">
<path d="M13.2584 11H12.4297L12.136 10.73C13.1639 9.59 13.7828 8.11 13.7828 6.5C13.7828 2.91 10.7304 0 6.96477 0C3.19911 0 0.146729 2.91 0.146729 6.5C0.146729 10.09 3.19911 13 6.96477 13C8.65355 13 10.206 12.41 11.4017 11.43L11.685 11.71V12.5L16.9296 17.49L18.4925 16L13.2584 11ZM6.96477 11C4.35294 11 2.24459 8.99 2.24459 6.5C2.24459 4.01 4.35294 2 6.96477 2C9.57661 2 11.685 4.01 11.685 6.5C11.685 8.99 9.57661 11 6.96477 11Z" fill="#868E96"/>
</svg>
