<svg width="24" height="24" viewBox="0 0 24 24" fill="none" xmlns="http://www.w3.org/2000/svg">
<path d="M20 3H4C3.46957 3 2.96086 3.21071 2.58579 3.58579C2.21071 3.96086 2 4.46957 2 5V21.5C2 21.7761 2.22386 22 2.5 22H2.79289C2.9255 22 3.05268 21.9473 3.14645 21.8536L6.85355 18.1464C6.94732 18.0527 7.0745 18 7.20711 18H20C20.5304 18 21.0391 17.7893 21.4142 17.4142C21.7893 17.0391 22 16.5304 22 16V5C22 4.46957 21.7893 3.96086 21.4142 3.58579C21.0391 3.21071 20.5304 3 20 3ZM20 16H6.20711C6.0745 16 5.94732 16.0527 5.85355 16.1464L4.85355 17.1464C4.53857 17.4614 4 17.2383 4 16.7929V5.5C4 5.22386 4.22386 5 4.5 5H20" fill="#868E96"/>
</svg>
