<svg width="14" height="14" viewBox="0 0 14 14" fill="none" xmlns="http://www.w3.org/2000/svg">
<path fill-rule="evenodd" clip-rule="evenodd" d="M9.54545 5.09091C9.54545 6.49672 8.40582 7.63636 7 7.63636C5.59418 7.63636 4.45455 6.49672 4.45455 5.09091C4.45455 3.68509 5.59418 2.54545 7 2.54545C8.40582 2.54545 9.54545 3.68509 9.54545 5.09091ZM8.27273 5.09091C8.27273 5.79382 7.70291 6.36364 7 6.36364C6.29709 6.36364 5.72727 5.79382 5.72727 5.09091C5.72727 4.388 6.29709 3.81818 7 3.81818C7.70291 3.81818 8.27273 4.388 8.27273 5.09091Z" fill="#868E96"/>
<path fill-rule="evenodd" clip-rule="evenodd" d="M7 0C3.13401 0 0 3.13401 0 7C0 10.866 3.13401 14 7 14C10.866 14 14 10.866 14 7C14 3.13401 10.866 0 7 0ZM1.27273 7C1.27273 8.33013 1.72617 9.55436 2.4869 10.5265C3.53338 9.15657 5.18399 8.27273 7.04103 8.27273C8.87399 8.27273 10.5058 9.13378 11.5541 10.4735C12.2901 9.50998 12.7273 8.30604 12.7273 7C12.7273 3.83691 10.1631 1.27273 7 1.27273C3.83691 1.27273 1.27273 3.83691 1.27273 7ZM7 12.7273C5.63167 12.7273 4.37542 12.2474 3.39034 11.4468C4.19588 10.2971 5.53067 9.54545 7.04103 9.54545C8.53265 9.54545 9.85303 10.2786 10.6615 11.4042C9.66883 12.2304 8.39244 12.7273 7 12.7273Z" fill="#868E96"/>
</svg>
