<svg width="14" height="14" viewBox="0 0 14 14" fill="none" xmlns="http://www.w3.org/2000/svg">
<g clip-path="url(#clip0_710_1370)">
<path d="M10.7002 4.4252C11.0649 4.94825 11.3215 5.55226 11.4377 6.20486H12.8334V7.79579H11.4377C11.3215 8.44839 11.0649 9.0524 10.7002 9.57545L11.6873 10.5627L10.5624 11.6876L9.57521 10.7004C9.05216 11.0651 8.44815 11.3217 7.79554 11.4379V12.8337H6.20462V11.4379C5.55201 11.3217 4.948 11.0651 4.42496 10.7004L3.43775 11.6876L2.31282 10.5627L3.3 9.57545C2.9353 9.0524 2.67867 8.44839 2.56247 7.79579H1.16675V6.20486H2.56247C2.67867 5.55226 2.9353 4.94825 3.3 4.4252L2.31282 3.438L3.43775 2.31306L4.42496 3.30024C4.948 2.93554 5.55201 2.67891 6.20462 2.56271V1.16699H7.79554V2.56271C8.44815 2.67891 9.05216 2.93554 9.57521 3.30024L10.5624 2.31306L11.6873 3.438L10.7002 4.4252Z" fill="#868E96"/>
<path fill-rule="evenodd" clip-rule="evenodd" d="M5.76712 1.16699C5.76712 0.925368 5.96299 0.729492 6.20462 0.729492H7.79554C8.03717 0.729492 8.23304 0.925368 8.23304 1.16699V2.2103C8.68921 2.3274 9.11988 2.50789 9.51503 2.7417L10.2531 2.0037C10.4239 1.83285 10.7009 1.83285 10.8718 2.00371L11.9967 3.12864C12.1676 3.29949 12.1676 3.5765 11.9967 3.74735L11.2587 4.48537C11.4925 4.88052 11.673 5.31119 11.7901 5.76736H12.8334C13.075 5.76736 13.2709 5.96324 13.2709 6.20486V7.79579C13.2709 8.03741 13.075 8.23329 12.8334 8.23329H11.7901C11.673 8.68946 11.4925 9.12013 11.2587 9.51528L11.9967 10.2533C12.1676 10.4242 12.1676 10.7012 11.9967 10.872L10.8718 11.9969C10.7009 12.1678 10.4239 12.1678 10.2531 11.9969L9.51503 11.2589C9.11988 11.4928 8.68921 11.6733 8.23304 11.7904V12.8337C8.23304 13.0753 8.03717 13.2712 7.79554 13.2712H6.20462C5.96299 13.2712 5.76712 13.0753 5.76712 12.8337V11.7904C5.31095 11.6733 4.88028 11.4928 4.48513 11.2589L3.74711 11.9969C3.57625 12.1678 3.29925 12.1678 3.12839 11.9969L2.00346 10.872C1.83261 10.7012 1.83261 10.4242 2.00346 10.2533L2.74146 9.51528C2.50764 9.12013 2.32716 8.68946 2.21005 8.23329H1.16675C0.925123 8.23329 0.729248 8.03741 0.729248 7.79579V6.20486C0.729248 5.96324 0.925123 5.76736 1.16675 5.76736H2.21005C2.32716 5.31119 2.50764 4.88053 2.74146 4.48537L2.00346 3.74735C1.83261 3.5765 1.83261 3.29949 2.00346 3.12864L3.12839 2.0037C3.29925 1.83285 3.57625 1.83285 3.74711 2.0037L4.48513 2.7417C4.88028 2.50789 5.31095 2.3274 5.76712 2.2103V1.16699ZM6.64212 1.60449V2.56271C6.64212 2.77475 6.49007 2.95627 6.28131 2.99344C5.69259 3.09826 5.14755 3.32976 4.67519 3.65912C4.5013 3.78036 4.2655 3.7595 4.1156 3.60961L3.43776 2.93178L2.93153 3.438L3.60936 4.11585C3.75926 4.26574 3.78012 4.50154 3.65887 4.67543C3.32951 5.14779 3.09802 5.69283 2.99319 6.28155C2.95603 6.49031 2.77451 6.64236 2.56247 6.64236H1.60425V7.35829H2.56247C2.77451 7.35829 2.95603 7.51034 2.99319 7.7191C3.09802 8.30782 3.32951 8.85286 3.65887 9.32522C3.78012 9.49911 3.75926 9.73491 3.60936 9.8848L2.93153 10.5626L3.43776 11.0689L4.1156 10.391C4.2655 10.2411 4.5013 10.2203 4.67519 10.3415C5.14755 10.6709 5.69259 10.9024 6.28131 11.0072C6.49007 11.0444 6.64212 11.2259 6.64212 11.4379V12.3962H7.35804V11.4379C7.35804 11.2259 7.5101 11.0444 7.71885 11.0072C8.30757 10.9024 8.85261 10.6709 9.32498 10.3415C9.49887 10.2203 9.73466 10.2411 9.88456 10.391L10.5624 11.0689L11.0686 10.5626L10.3908 9.8848C10.2409 9.7349 10.22 9.49911 10.3413 9.32522C10.6706 8.85286 10.9022 8.30782 11.007 7.71909C11.0441 7.51034 11.2257 7.35829 11.4377 7.35829H12.3959V6.64236H11.4377C11.2257 6.64236 11.0441 6.49031 11.007 6.28156C10.9022 5.69283 10.6706 5.14779 10.3413 4.67543C10.22 4.50154 10.2409 4.26575 10.3908 4.11585L11.0686 3.438L10.5624 2.93178L9.88456 3.60961C9.73466 3.7595 9.49887 3.78036 9.32498 3.65912C8.85262 3.32976 8.30758 3.09826 7.71885 2.99344C7.5101 2.95627 7.35804 2.77475 7.35804 2.56271V1.60449H6.64212Z" fill="#868E96"/>
<path d="M7.00008 8.45866C7.80549 8.45866 8.45841 7.80573 8.45841 7.00033C8.45841 6.19492 7.80549 5.54199 7.00008 5.54199C6.19467 5.54199 5.54175 6.19492 5.54175 7.00033C5.54175 7.80573 6.19467 8.45866 7.00008 8.45866Z" fill="#FFFBFF"/>
<path fill-rule="evenodd" clip-rule="evenodd" d="M5.10425 7.00033C5.10425 5.95329 5.95305 5.10449 7.00008 5.10449C8.04711 5.10449 8.89591 5.95329 8.89591 7.00033C8.89591 8.04736 8.04711 8.89616 7.00008 8.89616C5.95305 8.89616 5.10425 8.04736 5.10425 7.00033ZM7.00008 5.97949C6.4363 5.97949 5.97925 6.43654 5.97925 7.00033C5.97925 7.56411 6.4363 8.02116 7.00008 8.02116C7.56387 8.02116 8.02091 7.56411 8.02091 7.00033C8.02091 6.43654 7.56387 5.97949 7.00008 5.97949Z" fill="#FFFBFF"/>
</g>
<defs>
<clipPath id="clip0_710_1370">
<rect width="14" height="14" fill="white"/>
</clipPath>
</defs>
</svg>
