<svg width="10" height="12" viewBox="0 0 10 12" fill="none" xmlns="http://www.w3.org/2000/svg">
<path d="M8.77077 1.20969L5.87043 0.133771C5.38801 -0.0445904 4.59754 -0.0445904 4.11511 0.133771L1.21477 1.20969C0.546357 1.4571 0 2.23959 0 2.94153V7.21645C0 7.89537 0.45336 8.78718 1.00553 9.19569L3.50482 11.0426C4.32436 11.6525 5.67281 11.6525 6.49235 11.0426L8.99164 9.19569C9.54381 8.78718 9.99717 7.89537 9.99717 7.21645V2.94153C9.98555 2.23959 9.43919 1.4571 8.77077 1.20969ZM4.95209 2.88974C5.63794 2.88974 6.19592 3.44209 6.19592 4.12101C6.19592 4.78843 5.667 5.32351 4.99859 5.34653H4.98696H4.97534C4.96371 5.34653 4.95209 5.34653 4.94046 5.34653C4.24299 5.32351 3.71988 4.78843 3.71988 4.12101C3.71407 3.44209 4.27205 2.88974 4.95209 2.88974ZM6.26567 8.25785C5.91112 8.48799 5.45195 8.60882 4.99277 8.60882C4.5336 8.60882 4.06862 8.49375 3.71988 8.25785C3.38858 8.03921 3.20839 7.74003 3.20258 7.41207C3.20258 7.08987 3.38858 6.77917 3.71988 6.56054C4.42317 6.10025 5.56819 6.10025 6.27148 6.56054C6.60278 6.77917 6.78878 7.07836 6.78878 7.40632C6.78296 7.72852 6.59697 8.03921 6.26567 8.25785Z" fill="#F5C272"/>
</svg>
